<svg xmlns="http://www.w3.org/2000/svg" xmlns:xlink="http://www.w3.org/1999/xlink" width="116" height="116" viewBox="0 0 116 116">
  <defs>
    <clipPath id="clip-path">
      <rect id="Rectángulo_14633" data-name="Rectángulo 14633" width="116" height="116" transform="translate(-3 -3)" fill="none"/>
    </clipPath>
    <clipPath id="clip-path-2">
      <rect id="Rectángulo_14632" data-name="Rectángulo 14632" width="110.165" height="110.165" transform="translate(0 -0.001)" fill="none"/>
    </clipPath>
  </defs>
  <g id="ico_capacitaciones_normal" transform="translate(-1212 -3691)">
    <g id="Grupo_16941" data-name="Grupo 16941" transform="translate(1215 3694)" clip-path="url(#clip-path)">
      <g id="Grupo_16940" data-name="Grupo 16940">
        <g id="Grupo_16939" data-name="Grupo 16939" clip-path="url(#clip-path-2)">
          <path id="Trazado_37049" data-name="Trazado 37049" d="M106.489,55.167A51.744,51.744,0,1,1,54.745,3.423a51.744,51.744,0,0,1,51.744,51.744" fill="#ffe9d6"/>
          <path id="Trazado_37050" data-name="Trazado 37050" d="M39.909,76.137A10.311,10.311,0,1,1,50.22,65.826,10.323,10.323,0,0,1,39.909,76.137m0-16.622a6.311,6.311,0,1,0,6.311,6.311,6.318,6.318,0,0,0-6.311-6.311" fill="#f68a30"/>
          <path id="Trazado_37051" data-name="Trazado 37051" d="M62.173,76.137A10.311,10.311,0,1,1,72.484,65.826,10.323,10.323,0,0,1,62.173,76.137m0-16.622a6.311,6.311,0,1,0,6.311,6.311,6.318,6.318,0,0,0-6.311-6.311" fill="#f68a30"/>
          <path id="Trazado_37052" data-name="Trazado 37052" d="M70.1,95.36H33.107a6.338,6.338,0,0,1-6.331-6.33V83.478A10.322,10.322,0,0,1,37.087,73.167h5.642a10.3,10.3,0,0,1,8.311,4.214,10.3,10.3,0,0,1,8.311-4.214h5.643A10.322,10.322,0,0,1,75.3,83.478v6.676A5.212,5.212,0,0,1,70.1,95.36M37.087,77.167a6.318,6.318,0,0,0-6.311,6.311V89.03a2.333,2.333,0,0,0,2.331,2.33H70.1A1.207,1.207,0,0,0,71.3,90.154V83.478a6.318,6.318,0,0,0-6.31-6.311H59.351a6.318,6.318,0,0,0-6.311,6.311,2,2,0,0,1-4,0,6.318,6.318,0,0,0-6.311-6.311Z" fill="#f68a30"/>
          <path id="Trazado_37053" data-name="Trazado 37053" d="M46.407,42.14V15.933a6,6,0,0,1,6-6h48.082a6,6,0,0,1,6,6V45.695a6,6,0,0,1-6,6H52.407a6,6,0,0,1-6-6Z" fill="#ff8300"/>
          <path id="Trazado_37054" data-name="Trazado 37054" d="M32.549,74.334H23.84A6.338,6.338,0,0,1,17.509,68V54.786A10.334,10.334,0,0,1,27.831,44.464h4.885A11.389,11.389,0,0,1,44.092,55.84v1.675a2,2,0,0,1-4,0V55.84a7.385,7.385,0,0,0-7.376-7.376H27.831a6.329,6.329,0,0,0-6.322,6.322V68a2.333,2.333,0,0,0,2.331,2.33h8.709a2,2,0,0,1,0,4" fill="#f68a30"/>
          <path id="Trazado_37055" data-name="Trazado 37055" d="M30.655,47.921A10.322,10.322,0,1,1,40.977,37.6,10.333,10.333,0,0,1,30.655,47.921m0-16.643A6.322,6.322,0,1,0,36.977,37.6a6.329,6.329,0,0,0-6.322-6.321" fill="#f68a30"/>
          <path id="Trazado_37056" data-name="Trazado 37056" d="M80.463,42.264,65.22,27.021l-5.662,5.662a2.5,2.5,0,0,1-3.535-3.535l9.2-9.2L80.463,35.193l7.461-7.46a2.5,2.5,0,0,1,3.535,3.535Z" fill="#fff"/>
          <path id="Trazado_37057" data-name="Trazado 37057" d="M97.606,26.086a5.021,5.021,0,1,1-5.021-5.021,5.021,5.021,0,0,1,5.021,5.021" fill="#fff"/>
          <path id="Trazado_37058" data-name="Trazado 37058" d="M85.326,38.143a5.02,5.02,0,1,1-5.021-5.021,5.021,5.021,0,0,1,5.021,5.021" fill="#fff"/>
          <path id="Trazado_37059" data-name="Trazado 37059" d="M69.792,23.485a5.021,5.021,0,1,1-5.021-5.021,5.021,5.021,0,0,1,5.021,5.021" fill="#fff"/>
        </g>
      </g>
    </g>
  </g>
</svg>
